# File created by Blade
# Date/Time:  Thu Jan 22 19:13:14 2015
# Frame Rate: 120.000 fps
#------------------------------------------------------
:FULLY-SPECIFIED
:DEGREES
2292
root 1.223916 25.071815 -7.711952 90.048516 -56.843003 -36.312788
RightUpLeg -108.307288 13.533556 15.889230
RightLeg 57.886710 -0.000000 -0.000000
RightFoot -11.167185 6.858898 2.832043
RightToeBase 1.165163 -0.000000 -0.000000
LeftUpLeg -11.371201 50.056172 27.908980
LeftLeg 4.902824 -0.000000 -0.000000
LeftFoot -30.106282 1.070902 -44.833658
LeftToeBase 12.498802 -0.000000 -0.000000
Spine 31.010834 -37.731413 -20.215754
RightShoulder -27.043959 -17.674410 -24.941905
RightArm -15.443688 53.222332 30.030775
RightForeArm 22.976498 -0.000000 17.468912
RightHand 19.173617 -0.000000 -17.799228
RightHandThumb1 -24.326973 -0.000000 -32.862282
LeftShoulder -1.380647 -8.727018 28.815527
LeftArm 27.351583 -15.486074 -58.480280
LeftForeArm 19.857822 0.000000 6.728578
LeftHand -4.428303 -0.000000 10.934584
LeftHandThumb1 -26.253704 0.000000 33.147579
Head 0.555326 -49.673648 12.547213
2293
root 1.208669 25.070248 -7.714922 90.235332 -56.833335 -36.489123
RightUpLeg -108.243125 13.663884 16.038999
RightLeg 57.848826 -0.000000 -0.000000
RightFoot -11.077452 6.806959 1.873690
RightToeBase 1.113111 -0.000000 -0.000000
LeftUpLeg -11.228574 50.027067 28.015337
LeftLeg 4.818768 -0.000000 -0.000000
LeftFoot -30.112195 1.184256 -44.933078
LeftToeBase 12.347565 -0.000000 -0.000000
Spine 31.004700 -37.753888 -20.374560
RightShoulder -27.065942 -17.497775 -25.101872
RightArm -15.183937 53.046720 29.935417
RightForeArm 23.084957 -0.000000 17.342873
RightHand 19.516523 0.000000 -17.914878
RightHandThumb1 -24.326973 -0.000000 -32.862282
LeftShoulder -1.401482 -8.735276 28.907085
LeftArm 27.146709 -15.464434 -58.497372
LeftForeArm 19.919124 -0.000000 6.791453
LeftHand -4.546011 0.000000 10.981404
LeftHandThumb1 -26.253704 0.000000 33.147579
Head 0.802502 -49.738649 12.512662
2294
root 1.193971 25.067948 -7.716852 90.427280 -56.835094 -36.642375
RightUpLeg -108.232266 13.779917 16.140160
RightLeg 57.829934 -0.000000 -0.000000
RightFoot -10.985552 6.851120 1.077028
RightToeBase 1.236984 -0.000000 -0.000000
LeftUpLeg -11.111110 50.011256 28.088937
LeftLeg 4.721294 -0.000000 -0.000000
LeftFoot -30.056898 1.195746 -45.092523
LeftToeBase 12.170626 -0.000000 -0.000000
Spine 30.924720 -37.766038 -20.503467
RightShoulder -27.034637 -17.448384 -25.216849
RightArm -15.002812 52.960924 29.828983
RightForeArm 23.033104 -0.000000 17.403172
RightHand 19.232551 -0.000000 -18.064671
RightHandThumb1 -24.326973 -0.000000 -32.862282
LeftShoulder -1.373082 -8.672377 28.999481
LeftArm 27.006110 -15.533914 -58.589216
LeftForeArm 19.935280 -0.000000 6.862327
LeftHand -4.514230 -0.000000 11.500327
LeftHandThumb1 -26.253704 0.000000 33.147579
Head 1.273639 -49.890579 12.302367
2295
root 1.181201 25.062253 -7.719640 90.558690 -56.860346 -36.731077
RightUpLeg -108.269098 13.861558 16.178639
RightLeg 57.854952 -0.000000 -0.000000
RightFoot -10.915218 6.801937 0.605619
RightToeBase 1.422207 -0.000000 -0.000000
LeftUpLeg -11.041731 50.059426 28.107600
LeftLeg 4.649574 -0.000000 -0.000000
LeftFoot -29.951261 1.161230 -45.153926
LeftToeBase 12.140727 -0.000000 -0.000000
Spine 30.814784 -37.789324 -20.660364
RightShoulder -26.949096 -17.506803 -25.369371
RightArm -14.813961 52.967271 29.786339
RightForeArm 22.852778 0.000000 17.426481
RightHand 19.280293 -0.000000 -17.903786
RightHandThumb1 -24.326973 -0.000000 -32.862282
LeftShoulder -1.244180 -8.569198 29.065048
LeftArm 26.840303 -15.705419 -58.667366
LeftForeArm 20.127922 -0.000000 6.990295
LeftHand -4.775278 -0.000000 11.338513
LeftHandThumb1 -26.253704 0.000000 33.147579
Head 1.624823 -49.793109 12.150601
2296
root 1.167410 25.058555 -7.719324 90.681966 -56.872511 -36.772267
RightUpLeg -108.338936 13.919626 16.222365
RightLeg 57.888457 -0.000000 -0.000000
RightFoot -10.859111 6.789031 0.255102
RightToeBase 1.448012 -0.000000 -0.000000
LeftUpLeg -11.041284 50.120002 28.080819
LeftLeg 4.576135 -0.000000 -0.000000
LeftFoot -29.811410 1.170710 -45.159940
LeftToeBase 11.929529 -0.000000 -0.000000
Spine 30.742989 -37.822873 -20.762359
RightShoulder -26.922684 -17.449451 -25.427570
RightArm -14.734166 52.908603 29.570754
RightForeArm 22.743985 -0.000000 17.481055
RightHand 19.449045 -0.000000 -17.753710
RightHandThumb1 -24.326973 -0.000000 -32.862282
LeftShoulder -1.297693 -8.499013 29.116598
LeftArm 26.867060 -15.811939 -58.831281
LeftForeArm 20.316897 -0.000000 7.000931
LeftHand -4.758373 -0.000000 11.638849
LeftHandThumb1 -26.253704 0.000000 33.147579
Head 2.100516 -49.961926 11.888551
2297
root 1.155897 25.052839 -7.720167 90.758712 -56.892818 -36.755074
RightUpLeg -108.449899 13.950394 16.217028
RightLeg 57.955951 -0.000000 -0.000000
RightFoot -10.850647 6.800746 -0.048104
RightToeBase 1.972172 -0.000000 -0.000000
LeftUpLeg -11.079903 50.125673 28.027386
LeftLeg 4.526433 -0.000000 -0.000000
LeftFoot -29.696302 1.109282 -45.248638
LeftToeBase 11.757052 -0.000000 -0.000000
Spine 30.631143 -37.860564 -20.837953
RightShoulder -26.922780 -17.315228 -25.618162
RightArm -14.650108 52.684307 29.424556
RightForeArm 22.467218 -0.000000 17.563142
RightHand 19.197244 -0.000000 -17.726350
RightHandThumb1 -24.326973 -0.000000 -32.862282
LeftShoulder -1.255585 -8.491697 29.141973
LeftArm 26.789445 -15.893486 -58.942067
LeftForeArm 20.501909 -0.000000 7.033154
LeftHand -4.757596 0.000000 11.832307
LeftHandThumb1 -26.253704 0.000000 33.147579
Head 2.475075 -50.060515 11.641012
2298
root 1.146460 25.047661 -7.721064 90.797092 -56.898450 -36.699465
RightUpLeg -108.569476 13.956852 16.181131
RightLeg 58.029091 -0.000000 -0.000000
RightFoot -10.855097 6.819895 -0.227701
RightToeBase 2.118316 -0.000000 -0.000000
LeftUpLeg -11.128798 50.050057 28.005220
LeftLeg 4.502640 -0.000000 -0.000000
LeftFoot -29.625972 1.081952 -45.335858
LeftToeBase 11.674501 -0.000000 -0.000000
Spine 30.566232 -37.923965 -20.906841
RightShoulder -26.933145 -17.373231 -25.675889
RightArm -14.444941 52.788661 29.365522
RightForeArm 22.194059 -0.000000 17.651396
RightHand 19.315306 -0.000000 -17.750424
RightHandThumb1 -24.326973 -0.000000 -32.862282
LeftShoulder -1.238507 -8.616712 29.190156
LeftArm 26.623645 -16.046400 -59.102831
LeftForeArm 20.827931 -0.000000 7.044305
LeftHand -4.754735 -0.000000 11.852626
LeftHandThumb1 -26.253704 0.000000 33.147579
Head 2.633363 -50.067687 11.515218
2299
root 1.139625 25.043544 -7.720004 90.798759 -56.922159 -36.598679
RightUpLeg -108.706197 13.936034 16.114462
RightLeg 58.106629 -0.000000 -0.000000
RightFoot -10.859509 6.792317 -0.443562
RightToeBase 1.903172 -0.000000 -0.000000
LeftUpLeg -11.167686 49.818714 27.965907
LeftLeg 4.452050 -0.000000 -0.000000
LeftFoot -29.641816 1.148656 -45.424711
LeftToeBase 11.513446 -0.000000 -0.000000
Spine 30.535918 -37.990773 -20.997944
RightShoulder -26.906563 -17.231688 -25.825839
RightArm -14.435341 52.653954 29.163386
RightForeArm 22.106288 -0.000000 17.742870
RightHand 19.297454 -0.000000 -17.859831
RightHandThumb1 -24.326973 -0.000000 -32.862282
LeftShoulder -1.256572 -8.619234 29.243135
LeftArm 26.575749 -16.144837 -59.239617
LeftForeArm 20.933183 -0.000000 7.109965
LeftHand -4.630996 -0.000000 12.379456
LeftHandThumb1 -26.253704 0.000000 33.147579
Head 2.684542 -50.020645 11.477028
2300
root 1.132777 25.037746 -7.721465 90.799019 -56.922443 -36.529226
RightUpLeg -108.810020 13.935924 16.074319
RightLeg 58.172569 -0.000000 -0.000000
RightFoot -10.827220 6.724245 -0.659685
RightToeBase 1.823660 -0.000000 -0.000000
LeftUpLeg -11.197060 49.659260 27.982702
LeftLeg 4.467496 -0.000000 -0.000000
LeftFoot -29.718400 1.034947 -45.720246
LeftToeBase 11.726947 -0.000000 -0.000000
Spine 30.519047 -38.010326 -21.074994
RightShoulder -26.869508 -17.097689 -25.979243
RightArm -14.439868 52.533870 28.955584
RightForeArm 21.978077 -0.000000 17.773896
RightHand 19.477576 -0.000000 -17.639184
RightHandThumb1 -24.326973 -0.000000 -32.862282
LeftShoulder -1.250708 -8.530320 29.298531
LeftArm 26.607302 -16.213907 -59.338635
LeftForeArm 21.036729 -0.000000 7.199000
LeftHand -4.636003 -0.000000 12.438264
LeftHandThumb1 -26.253704 0.000000 33.147579
Head 2.700140 -49.990789 11.459127
2301
root 1.126057 25.030105 -7.719749 90.804471 -56.918359 -36.485400
RightUpLeg -108.890909 13.945056 16.072654
RightLeg 58.237287 -0.000000 -0.000000
RightFoot -10.809188 6.601536 -0.934807
RightToeBase 1.959849 -0.000000 -0.000000
LeftUpLeg -11.206758 49.543887 28.012386
LeftLeg 4.502292 -0.000000 -0.000000
LeftFoot -29.712344 0.979276 -45.808963
LeftToeBase 11.519937 -0.000000 -0.000000
Spine 30.529226 -38.011446 -21.122254
RightShoulder -26.935605 -17.029102 -26.060302
RightArm -14.206999 52.528782 28.890051
RightForeArm 21.909406 -0.000000 17.820676
RightHand 19.429067 -0.000000 -17.860520
RightHandThumb1 -24.326973 -0.000000 -32.862282
LeftShoulder -1.237056 -8.587537 29.316309
LeftArm 26.470013 -16.113031 -59.314088
LeftForeArm 21.157008 -0.000000 7.383363
LeftHand -4.806092 -0.000000 12.377428
LeftHandThumb1 -26.253704 0.000000 33.147579
Head 2.726499 -49.985970 11.356930
